<svg width="360" height="269" viewBox="0 0 360 269" fill="none" xmlns="http://www.w3.org/2000/svg">
<path d="M16.3269 269C4.4345 245.206 -2.94838 220.362 1.13216 193.538C5.48207 164.923 22.5625 145.93 48.3327 134.198C64.0962 127.017 80.977 124.406 97.9377 121.946C117.752 119.076 136.369 112.975 152.152 99.9625C158.068 95.0917 162.737 89.0907 167.975 82.2896C164.553 103.923 152.132 117.725 134.952 127.897C119.488 137.049 102.537 142.229 85.1074 146.02C63.3978 150.751 44.2322 159.912 30.6637 178.305C17.6638 195.918 13.4536 216.191 13.5733 237.655C13.6132 248.177 14.7805 258.588 16.3269 269Z" fill="#299260"/>
<path d="M18.4919 132.848C21.8541 120.366 28.4389 110.444 37.458 102.033C51.2759 89.1506 68.496 83.1796 86.1551 78.1388C104.652 72.8579 122.251 65.6167 137.466 53.5647C149.179 44.2832 158.547 33.2814 160.842 17.7289C161.66 12.218 160.762 6.85712 159.924 1.38623C165.222 8.61741 167.955 16.7787 168.404 25.6702C169.681 50.9943 157.091 68.6772 136.977 81.9694C120.615 92.7812 102.188 98.162 83.172 101.873C60.4447 106.313 39.6728 114.915 22.3829 130.827C21.904 131.267 21.3653 131.678 20.7966 131.998C20.2678 132.278 19.6493 132.428 18.4919 132.848Z" fill="#3873C7"/>
<path d="M84.1796 64.9166C72.5765 65.0066 62.7992 55.3351 62.7792 43.7432C62.7593 32.1713 72.5765 22.3297 84.0698 22.3897C95.4435 22.4497 104.971 31.8912 105.231 43.3731C105.5 54.835 95.7328 64.8266 84.1796 64.9166Z" fill="#3873C7"/>
<path d="M295.22 204.76C292.507 209.34 289.853 213.951 287.069 218.482C284.745 222.272 282.43 222.292 280.066 218.582C277.312 214.251 274.678 209.85 270.827 205.53C270.827 210.5 270.687 215.471 270.877 220.422C270.997 223.573 270.548 225.233 266.687 225.233C262.875 225.243 262.387 223.693 262.436 220.492C262.606 211.171 262.456 201.839 262.566 192.508C262.586 190.907 261.369 188.357 264.083 187.957C266.707 187.567 269.54 186.887 271.426 190.287C275.117 196.958 279.208 203.409 283.607 210.721C287.798 203.719 291.729 197.318 295.47 190.807C296.677 188.707 297.994 187.747 300.528 187.687C303.511 187.617 304.579 188.337 304.519 191.547C304.339 201.369 304.379 211.211 304.609 221.032C304.689 224.613 302.893 224.963 300.079 225.173C296.837 225.403 296.158 224.023 296.258 221.112C296.448 215.701 296.308 210.28 296.308 204.86C295.949 204.82 295.58 204.79 295.22 204.76Z" fill="#3873C7"/>
<path d="M106.568 224.493C100.711 226.203 96.5907 224.983 93.877 219.662C92.9492 217.852 92.0612 215.651 89.7366 214.921C84.828 213.361 82.4834 215.021 82.7528 220.432C82.9324 224.083 82.0045 225.243 78.1535 225.233C74.3024 225.223 73.8734 223.673 73.9133 220.502C74.063 211.011 74.043 201.519 73.9033 192.037C73.8634 189.017 74.4022 187.447 77.9539 187.717C82.7428 188.087 87.5916 187.727 92.3905 188.017C98.4265 188.387 103.505 190.767 105.54 196.908C107.515 202.869 106.059 208.16 100.721 211.851C98.8654 213.131 99.3842 214.091 100.352 215.461C102.427 218.392 104.433 221.392 106.568 224.493ZM82.653 199.799C82.663 207.94 82.663 207.94 87.5317 207.9C94.1763 207.85 97.4388 205.72 97.4986 201.409C97.5585 196.778 94.5555 195.278 87.2624 194.808C81.7052 194.458 82.5632 197.778 82.653 199.799Z" fill="#3873C7"/>
<path d="M217.62 206.7C217.62 201.709 217.76 196.708 217.57 191.717C217.46 188.777 218.209 187.587 221.431 187.707C228.225 187.967 235.04 187.877 241.854 187.747C244.538 187.697 246.134 187.897 246.084 191.367C246.044 195.018 244.029 194.868 241.575 194.828C237.594 194.768 233.593 195.018 229.622 194.758C226.36 194.548 226.24 196.288 226.27 198.728C226.3 201.139 226.42 202.959 229.642 202.769C233.284 202.549 236.945 202.839 240.597 202.679C243.101 202.579 243.67 203.699 243.65 205.96C243.63 208.27 243.321 209.83 240.447 209.68C237.304 209.51 234.132 209.78 230.989 209.59C227.926 209.41 226.23 209.76 226.15 213.701C226.07 217.882 227.836 218.282 231.149 218.112C235.289 217.902 239.459 218.242 243.6 218.012C246.753 217.832 246.553 219.692 246.563 221.792C246.573 223.773 246.603 225.283 243.789 225.213C236.157 225.033 228.515 225.033 220.883 225.203C218.079 225.263 217.55 224.093 217.61 221.662C217.74 216.671 217.65 211.681 217.65 206.68C217.63 206.7 217.63 206.7 217.62 206.7Z" fill="#3873C7"/>
<path d="M118.21 224.753C123.478 212.831 128.537 201.129 133.834 189.537C135.101 186.767 142.704 186.907 143.981 189.687C148.78 200.089 153.359 210.6 158.088 221.032C158.836 222.682 158.726 224.463 157.09 224.713C154.756 225.063 151.912 226.593 149.997 223.423C148.75 221.362 149.119 217.642 146.385 217.332C141.307 216.772 136.119 217.152 130.981 217.282C129.853 217.312 129.484 218.612 129.315 219.542C128.078 226.103 123.458 225.483 118.21 224.753ZM138.972 196.568C137.875 198.919 137.206 200.229 136.648 201.569C132.727 210.921 132.737 210.921 143.173 210.23C143.442 210.21 143.701 209.92 144.24 209.59C142.604 205.56 140.958 201.479 138.972 196.568Z" fill="#3873C7"/>
<path d="M186.652 225.793C182.302 225.693 178.551 225.023 174.969 223.623C172.615 222.702 170.489 222.032 172.076 218.332C173.622 214.721 175.228 215.691 177.633 216.851C180.995 218.462 184.617 218.872 188.318 218.422C190.353 218.182 192.459 217.682 192.878 215.301C193.327 212.731 191.142 211.851 189.316 211.221C186.343 210.2 183.23 209.61 180.227 208.67C174.41 206.86 171.547 203.379 171.677 198.468C171.806 193.528 175.268 189.637 180.826 188.027C186.123 186.497 191.331 186.937 196.469 188.667C198.485 189.347 200.679 189.867 199.333 193.078C198.235 195.708 197.437 197.278 194.065 195.698C190.623 194.088 186.802 193.268 182.99 194.948C181.554 195.588 180.436 196.508 180.476 198.278C180.506 199.859 181.564 200.739 182.841 201.169C185.814 202.179 188.827 203.059 191.85 203.929C198.934 205.95 201.986 209.15 201.817 214.491C201.657 219.822 197.666 223.833 191.092 225.173C189.456 225.513 187.799 225.643 186.652 225.793Z" fill="#3873C7"/>
<path d="M318.746 224.723C323.973 212.931 329.142 201.459 334.13 189.897C335.247 187.317 337.213 187.717 339.088 187.807C341.054 187.907 343.398 186.887 344.636 189.727C349.684 201.259 354.852 212.751 360 224.303C352.418 226.073 352.517 225.773 348.846 219.612C345.563 214.101 339.827 218.112 335.287 217.182C333.212 216.752 330.399 216.281 329.74 219.662C328.453 226.133 323.874 225.443 318.746 224.723ZM344.995 210.02C343.129 205.5 341.463 201.449 339.747 197.298C337.851 198.489 337.722 200.309 337.193 201.789C336.215 204.47 333.052 207.83 334.818 209.67C336.814 211.761 340.974 210.601 344.995 210.02Z" fill="#3873C7"/>
</svg>
